<?xml version="1.0" encoding="UTF-8"?>
<svg xmlns="http://www.w3.org/2000/svg" xmlns:xlink="http://www.w3.org/1999/xlink" width="512" height="512" viewBox="0 0 60 60" version="1.1"><!-- Generator: Sketch 51.3 (57544) - http://www.bohemiancoding.com/sketch --><title>012 - Global Family</title><desc>Created with Sketch.</desc><defs/><g id="Page-1" stroke="none" stroke-width="1" fill="none" fill-rule="evenodd"><g id="012---Global-Family" fill="#000000" fill-rule="nonzero"><path d="M56.2411,15.6044 C57.7387451,12.1998239 56.984169,8.22445931 54.343169,5.60545214 C51.702169,2.98644497 47.7206336,2.26513771 44.3287,3.7912 C37.4621524,0.0639616 29.4093401,-0.827154021 21.894,1.3086 L21.8926,1.3094 C14.5172663,3.39024434 8.22953988,8.23720209 4.34,14.84 C4.26984225,14.9597549 4.2255573,15.0928822 4.21,15.2308 C3.73264996,15.8653123 3.33554065,16.5563826 3.0277,17.2883 L2.9535,17.4483 C1.12118459,21.4073821 0.171421938,25.7174654 0.17,30.08 C0.170283221,32.9144339 0.575201187,35.7343129 1.3725,38.4543 C0.692252121,40.7416911 0.950853959,43.2058068 2.09116066,45.302136 C3.23146737,47.3984651 5.15960463,48.9544302 7.4495,49.6262 C12.0545038,54.9767329 18.4079748,58.5205456 25.38,59.6274 C32.6640933,60.7896774 40.1205234,59.2123912 46.31,55.2 C49.9623539,56.8498591 54.2657273,55.8826681 56.8608809,52.8286703 C59.4560344,49.7746725 59.7160585,45.3716204 57.4984,42.0334 C61.2311239,33.511075 60.7659963,23.7338874 56.2411,15.6044 Z M48,13 C46.8954305,13 46,12.1045695 46,11 C46,9.8954305 46.8954305,9 48,9 C49.1045695,9 50,9.8954305 50,11 C49.9988975,12.1041125 49.1041125,12.9988975 48,13 Z M45.98,14.4329 C47.2201695,15.1890267 48.7788305,15.1890267 50.019,14.4329 C51.2293578,14.9753995 52.1784896,15.9712105 52.6623,17.2062 C50.0138284,19.5979502 45.9851716,19.5979502 43.3367,17.2062 C43.8206287,15.9711182 44.7699532,14.9752933 45.9805,14.4329 L45.98,14.4329 Z M55,12 C54.999664,13.2287474 54.6734772,14.4354281 54.0547,15.497 C53.4380703,14.4302582 52.548805,13.5467221 51.4781,12.937 C51.8158565,12.3470037 51.9956206,11.6798205 52,11 C52,8.790861 50.209139,7 48,7 C45.790861,7 44,8.790861 44,11 C44.0044654,11.6796508 44.1842265,12.3466511 44.5219,12.9365 C43.451195,13.5462221 42.5619297,14.4297582 41.9453,15.4965 C40.4734279,12.9490469 40.75247,9.75295259 42.64353,7.49910768 C44.53459,5.24526277 47.6336126,4.41523738 50.3980257,5.42218563 C53.1624389,6.42913388 55.0015813,9.05790513 55,12 Z M30.08,2.17 C34.3309154,2.17079532 38.5256084,3.14153222 42.3447,5.0083 C40.5210748,6.48233871 39.3454189,8.61045427 39.0684,10.9389 C38.2240549,10.5715541 37.2966002,10.4375262 36.3828,10.5508 C35.7115482,10.6746275 35.0600274,10.8882805 34.4458,11.186 C34.0538433,11.3713158 33.64655,11.5222816 33.2285,11.6372 C32.8276244,11.7289854 32.4067919,11.6625362 32.0537,11.4517 C31.9067,11.3462 31.8989,11.2632 31.896,11.2317 C31.873,10.9717 32.1992,10.6507 32.6987,10.1902 C33.3120854,9.70567317 33.7952108,9.0760775 34.1045,8.3582 C34.5152239,6.94382995 33.9080815,5.43171026 32.6333,4.6941 C31.4223834,4.02702339 30.0154012,3.80715808 28.6587,4.073 C28.1827524,4.12804025 27.7036188,4.15072568 27.2246,4.1409 C26.0291531,4.07579495 24.8884695,3.61858667 23.979,2.84 C25.981796,2.39272195 28.027868,2.16802628 30.08,2.17 Z M21.7828,3.4354 C23.1027899,5.0533388 25.0467723,6.03588664 27.1323,6.1392 C27.7033457,6.15433587 28.2747495,6.12937454 28.8423,6.0645 C29.7614197,5.85542595 30.7245155,5.96957063 31.5693,6.3877 C32.0412246,6.64089621 32.3015268,7.16474952 32.2183,7.6938 C32.0009728,8.09248386 31.7031792,8.44166346 31.3438,8.7192 C30.4497336,9.32502183 29.9111894,10.332137 29.9038,11.4121 C29.9709632,12.0845496 30.3306393,12.6933729 30.8872,13.0767 C31.7119941,13.623023 32.7251656,13.8061085 33.689,13.583 C34.2229416,13.4431819 34.7430008,13.2549002 35.2427,13.0205 C35.6966598,12.7970276 36.1771742,12.6321406 36.6727,12.5298 C37.5273167,12.4688304 38.3775237,12.6978353 39.0859,13.1798 C39.2882981,14.7118787 39.884346,16.1653398 40.8159,17.3984 C40.7323,17.4484 40.6504,17.5009 40.5668,17.5504 C40.2987,17.7091 40.038,17.8644 39.7304,18.0763 C38.6261376,18.9129337 37.4160804,19.5998556 36.1317,20.1192 C35.6460364,20.2818021 35.1514189,20.4163245 34.6503,20.5221 C33.606792,20.7036043 32.6036915,21.0685436 31.6875,21.6 C29.8501,22.7865 30.0747,24.6845 30.2153,25.8256 C30.1831,25.8149 30.147,25.8017 30.1079,25.7846 C29.936,25.7146 29.7679,25.6346 29.6021,25.5561 C28.5679785,24.8586696 27.2286401,24.8051271 26.1421456,25.4177821 C25.0556511,26.0304371 24.4083683,27.2041998 24.47,28.45 C24.47,30.8226 26.2312,32.2054 27.6463,33.3172 L28.1394,33.7083 C28.4525146,33.9948397 28.7341133,34.3140184 28.9794,34.6604 C26.9682,34.1546 24.9564667,33.6570667 22.9442,33.1678 C21.2523,32.7591 19.5414,32.2547 18.8432,31.0027 C18.5753965,30.4352278 18.3946338,29.8306402 18.307,29.2093 C18.1805802,28.2237942 17.8343169,27.2792937 17.2938,26.4456 C16.2667092,25.299988 14.882919,24.5346962 13.3666,24.2737 L13.1849,24.2215 C11.6874,23.7757 10.8637,23.2391 10.5949,22.5354 C10.4279524,21.6228392 10.5769395,20.6806301 11.0173,19.8641 C11.5825978,18.6883758 11.771183,17.3668122 11.5573,16.0799 C11.3331285,15.0925127 10.6731565,14.2601182 9.7629,13.8167 C9.09726109,13.5194417 8.36467887,13.4040851 7.6399,13.4824 C11.1559501,8.70457102 16.1137894,5.18256271 21.7828,3.4354 Z M2.17,30.08 C2.17113162,26.00931 3.05694088,21.9874951 4.7661,18.293 L4.8413,18.1313 C5.11302026,17.4132447 5.51883083,16.7534207 6.0371,16.187 C6.22036796,16.0024174 6.43772047,15.8551611 6.6771,15.7534 C7.36645855,15.405914 8.1683352,15.3570283 8.8948,15.6182 C9.2724578,15.8082781 9.54077569,16.1625641 9.6214,16.5776 C9.70942111,17.4723806 9.54234652,18.3737998 9.1395,19.1776 C8.50199919,20.4361408 8.35477588,21.8866342 8.7264,23.2476 C9.3973,25.001 11.2664,25.7376 12.6238,26.1411 L12.8177,26.1968 C13.8987213,26.3695805 14.900216,26.871358 15.6858,27.6338 C16.0409471,28.2358345 16.2659203,28.905644 16.3462,29.6 C16.4698054,30.4270634 16.7232612,31.2294148 17.0972,31.9774 C18.189,33.934 20.4458,34.6215 22.4736,35.1117 C24.6514,35.6409667 26.8293,36.1803667 29.0073,36.7299 C29.4458758,36.8733057 29.9195909,36.8674687 30.3545,36.7133 C30.8612444,36.5162315 31.2240125,36.0633435 31.3057,35.5258 C31.5347,34.0097 29.4409,32.1889 29.4092,32.1625 L28.8818,31.7445 C27.6416,30.7705 26.47,29.85 26.47,28.44 C26.4582787,27.8496366 26.798206,27.3086682 27.3352,27.0631 C27.7122,26.9054 28.0208,27.0216 28.7478,27.3644 C28.9461,27.4581 29.1468,27.5519 29.3304,27.6271 C30.1064706,28.0446953 31.0617061,27.9261832 31.7122,27.3316 C32.1368714,26.8618067 32.3180734,26.2207953 32.2022,25.5982 C32.0377,24.2647 32.0992,23.7145 32.7735,23.2794 C33.4990936,22.8803016 34.2868114,22.6064598 35.1035,22.4694 C35.6809607,22.3468043 36.2506572,22.1901302 36.8096,22.0002 C38.2831365,21.4119071 39.6714022,20.6292398 40.9375,19.673 C41.1375,19.5358 41.3589,19.4055 41.5859,19.2712 C41.7869,19.1521 42.0013,19.0234 42.2159,18.8846 C44.0723478,20.4514433 46.4848801,21.1983869 48.9019009,20.9546512 C51.3189216,20.7109155 53.5337527,19.4973422 55.04,17.5914 C58.6003633,24.6892659 58.9663508,32.9682512 56.0462,40.3526 C53.5669604,38.084913 50.0289496,37.3914924 46.8771193,38.5555367 C43.725289,39.719581 41.4873136,42.5462076 41.0772,45.881 C40.7227,45.5276 40.369,45.1727 40.0127,44.8086 C38.6336384,43.5026203 37.0448294,42.4377802 35.3127,41.6586 C32.7834,40.4467 30.5647,40.5609 29.2233,41.974 C28.5991863,42.7130155 28.1021868,43.5505849 27.7526,44.4525 C27.5739,44.8485 27.3991,45.2387 27.2048,45.5795 C26.8494229,46.2438896 26.3656306,46.8310821 25.7815,47.307 C25.5186396,47.4899224 25.238264,47.6462896 24.9445,47.7738 C24.3352384,48.0236739 23.7821696,48.3929985 23.3179,48.86 C22.8095494,49.4922301 22.4751772,50.2462911 22.3479,51.0475 C22.2783964,51.4048215 22.1698104,51.7534166 22.0241,52.087 C21.5480128,52.882331 21.2753346,53.7827635 21.2302,54.7086 C21.2436045,55.4222168 21.4487019,56.1190922 21.824,56.7262 C17.5662314,55.4134353 13.6857201,53.0979544 10.5085,49.9743 C14.6841589,49.7441023 18.1501947,46.6661116 18.8722573,42.5469195 C19.5943198,38.4277274 17.3818651,34.3543412 13.5334682,32.7175885 C9.68507133,31.0808358 5.21627981,32.3126369 2.75,35.69 C2.36796659,33.8443456 2.17364376,31.9647749 2.17,30.08 Z M10,42 C8.8954305,42 8,41.1045695 8,40 C8,38.8954305 8.8954305,38 10,38 C11.1045695,38 12,38.8954305 12,40 C11.9988975,41.1041125 11.1041125,41.9988975 10,42 Z M7.9805,43.4329 C9.2206695,44.1890267 10.7793305,44.1890267 12.0195,43.4329 C13.2298578,43.9753995 14.1789896,44.9712105 14.6628,46.2062 C12.0143284,48.5979502 7.98567161,48.5979502 5.3372,46.2062 C5.8210104,44.9712105 6.77014219,43.9753995 7.9805,43.4329 Z M10,34 C12.501872,33.9955335 14.8152131,35.3290224 16.0652612,37.496224 C17.3153094,39.6634256 17.3112813,42.3335798 16.0547,44.497 C15.4380703,43.4302582 14.548805,42.5467221 13.4781,41.937 C13.8158565,41.3470037 13.9956206,40.6798205 14,40 C14,37.790861 12.209139,36 10,36 C7.790861,36 6,37.790861 6,40 C6.00446536,40.6796508 6.18422651,41.3466511 6.5219,41.9365 C5.45119499,42.5462221 4.56192968,43.4297582 3.9453,44.4965 C2.68897598,42.3331101 2.68508622,39.663141 3.93510144,37.4960997 C5.18511666,35.3290585 7.49828322,33.9956378 10,34 Z M30.08,58 C28.6694614,57.9991261 27.2610776,57.8898039 25.8673,57.673 C25.4818438,57.458632 25.1079888,57.224038 24.7473,56.9702 C23.9390703,56.4663874 23.3863954,55.6394695 23.23,54.7 C23.2869641,54.0982826 23.4823212,53.5178925 23.8008,53.0042 C24.0240458,52.5283572 24.1891359,52.0273455 24.2925,51.512 C24.3576445,51.0427117 24.5307841,50.5949378 24.7983,50.2039 C25.0941871,49.9353188 25.4364116,49.722733 25.8083,49.5765 C26.2263204,49.3922332 26.6236943,49.1643005 26.9938,48.8965 C27.7907492,48.2606545 28.4519449,47.4712935 28.9382,46.5752 C29.1735,46.1621 29.3776,45.7119 29.5744,45.2764 C29.8415317,44.5815184 30.2128118,43.9313147 30.6755,43.3481 C31.6726,42.2959 33.6455,43.0766 34.4445,43.4599 C35.9657444,44.1431361 37.3643779,45.0717071 38.5845,46.2085 C39.4379,47.0806 40.2845,47.9271 41.1715,48.7385 C41.5867262,50.8304436 42.731117,52.7070489 44.4008,54.034 C40.0759379,56.6319744 35.1251852,58.0030351 30.08,58 Z M45.3371,52.2062 C45.8209104,50.9712105 46.7700422,49.9753995 47.9804,49.4329 C49.2205695,50.1890267 50.7792305,50.1890267 52.0194,49.4329 C53.2297578,49.9753995 54.1788896,50.9712105 54.6627,52.2062 C52.0142284,54.5979502 47.9855716,54.5979502 45.3371,52.2062 Z M50,48 C48.8954305,48 48,47.1045695 48,46 C48,44.8954305 48.8954305,44 50,44 C51.1045695,44 52,44.8954305 52,46 C51.9988975,47.1041125 51.1041125,47.9988975 50,48 Z M56.0547,50.497 C55.4380703,49.4302582 54.548805,48.5467221 53.4781,47.937 C53.8158565,47.3470037 53.9956206,46.6798205 54,46 C54,43.790861 52.209139,42 50,42 C47.790861,42 46,43.790861 46,46 C46.0044654,46.6796508 46.1842265,47.3466511 46.5219,47.9365 C45.451195,48.5462221 44.5619297,49.4297582 43.9453,50.4965 C42.2386166,47.5549427 42.8930568,43.8123204 45.496676,41.6244686 C48.1002952,39.4366169 51.8997048,39.4366169 54.503324,41.6244686 C57.1069432,43.8123204 57.7613834,47.5549427 56.0547,50.4965 L56.0547,50.497 Z" id="Shape"/></g></g></svg>
