<?xml version="1.0" encoding="utf-8"?>
<!-- Generator: Adobe Illustrator 18.1.1, SVG Export Plug-In . SVG Version: 6.00 Build 0)  -->
<svg version="1.1" id="Layer_5" xmlns="http://www.w3.org/2000/svg" xmlns:xlink="http://www.w3.org/1999/xlink" x="0px" y="0px"
	 viewBox="-283 285 512 512" enable-background="new -283 285 512 512" xml:space="preserve">
<linearGradient id="SVGID_1_" gradientUnits="userSpaceOnUse" x1="-35" y1="453" x2="-19" y2="453">
	<stop  offset="0" style="stop-color:#FFC96B"/>
	<stop  offset="0.6227" style="stop-color:#F89939"/>
	<stop  offset="1" style="stop-color:#F48120"/>
</linearGradient>
<path fill="url(#SVGID_1_)" d="M-35,445h16v16h-16V445z"/>
<linearGradient id="SVGID_2_" gradientUnits="userSpaceOnUse" x1="29" y1="453" x2="45" y2="453">
	<stop  offset="0" style="stop-color:#FFC96B"/>
	<stop  offset="0.6227" style="stop-color:#F89939"/>
	<stop  offset="1" style="stop-color:#F48120"/>
</linearGradient>
<path fill="url(#SVGID_2_)" d="M29,445h16v16H29V445z"/>
<linearGradient id="SVGID_3_" gradientUnits="userSpaceOnUse" x1="-3" y1="453" x2="13" y2="453">
	<stop  offset="0" style="stop-color:#FFC96B"/>
	<stop  offset="0.6227" style="stop-color:#F89939"/>
	<stop  offset="1" style="stop-color:#F48120"/>
</linearGradient>
<path fill="url(#SVGID_3_)" d="M-3,445h16v16H-3V445z"/>
<linearGradient id="SVGID_4_" gradientUnits="userSpaceOnUse" x1="-67" y1="453" x2="-51" y2="453">
	<stop  offset="0" style="stop-color:#FFC96B"/>
	<stop  offset="0.6227" style="stop-color:#F89939"/>
	<stop  offset="1" style="stop-color:#F48120"/>
</linearGradient>
<path fill="url(#SVGID_4_)" d="M-67,445h16v16h-16V445z"/>
<linearGradient id="SVGID_5_" gradientUnits="userSpaceOnUse" x1="-131" y1="453" x2="-115" y2="453">
	<stop  offset="0" style="stop-color:#FFC96B"/>
	<stop  offset="0.6227" style="stop-color:#F89939"/>
	<stop  offset="1" style="stop-color:#F48120"/>
</linearGradient>
<path fill="url(#SVGID_5_)" d="M-131,445h16v16h-16V445z"/>
<linearGradient id="SVGID_6_" gradientUnits="userSpaceOnUse" x1="-163" y1="453" x2="-147" y2="453">
	<stop  offset="0" style="stop-color:#FFC96B"/>
	<stop  offset="0.6227" style="stop-color:#F89939"/>
	<stop  offset="1" style="stop-color:#F48120"/>
</linearGradient>
<path fill="url(#SVGID_6_)" d="M-163,445h16v16h-16V445z"/>
<linearGradient id="SVGID_7_" gradientUnits="userSpaceOnUse" x1="-99" y1="453" x2="-83" y2="453">
	<stop  offset="0" style="stop-color:#FFC96B"/>
	<stop  offset="0.6227" style="stop-color:#F89939"/>
	<stop  offset="1" style="stop-color:#F48120"/>
</linearGradient>
<path fill="url(#SVGID_7_)" d="M-99,445h16v16h-16V445z"/>
<linearGradient id="SVGID_8_" gradientUnits="userSpaceOnUse" x1="-275" y1="541" x2="221" y2="541">
	<stop  offset="0" style="stop-color:#FFC96B"/>
	<stop  offset="0.6227" style="stop-color:#F89939"/>
	<stop  offset="1" style="stop-color:#F48120"/>
</linearGradient>
<path fill="url(#SVGID_8_)" d="M197,549H53h-8H4.9l7.1-16h176c18.2,0,33.1-14.8,33.1-33.1c0-6-1.6-11.9-4.7-17
	C187.4,434.9,134.7,405,78.6,405H12l-49.8-112H-83v112h-106.6l-32-80H-275v113.7l0.7,1.6c25.6,56.3,82.1,92.7,143.9,92.7H-83v16h-56
	c-13.2,0-24,10.8-24,24v192c0,13.2,10.8,24,24,24H45h8h144c13.2,0,24-10.8,24-24V573C221,559.8,210.2,549,197,549z M125,565h32v32
	h-32V565z M-48.2,629H-67V501H8.7L-48.2,629z M178.3,461H125c-23.7,0-43.4-17.3-47.3-40h0.9C116,421,151.7,435.8,178.3,461z
	 M-67,309h18.8l42.7,96H-67V309z M-232.4,341l25.6,64H-259v-64H-232.4z M-130.3,517c-55,0-105.3-32-128.7-81.8V421H61.6
	c4,31.5,30.9,56,63.4,56h67.8c3.5,4.5,6.8,9.2,9.8,14.2c1.6,2.7,2.4,5.7,2.4,8.8c0,9.4-7.7,17.1-17.1,17.1H19.1l14.2-32H-83v32
	H-130.3z M-147,765v-72h112v80h-104C-143.4,773-147,769.4-147,765z M45,773h-64v-96h-128V573c0-4.4,3.6-8,8-8h56v80h45.2l35.6-80H45
	h8c4.4,0,8,3.6,8,8v192c0,4.4-3.6,8-8,8H45z M205,765c0,4.4-3.6,8-8,8H75.5c0.9-2.5,1.5-5.2,1.5-8V573c0-2.8-0.6-5.5-1.5-8H109v48
	h64v-48h24c4.4,0,8,3.6,8,8V765z"/>
<linearGradient id="SVGID_9_" gradientUnits="userSpaceOnUse" x1="-67" y1="749" x2="-51" y2="749">
	<stop  offset="0" style="stop-color:#FFC96B"/>
	<stop  offset="0.6227" style="stop-color:#F89939"/>
	<stop  offset="1" style="stop-color:#F48120"/>
</linearGradient>
<path fill="url(#SVGID_9_)" d="M-67,741h16v16h-16V741z"/>
<linearGradient id="SVGID_10_" gradientUnits="userSpaceOnUse" x1="-131" y1="749" x2="-83" y2="749">
	<stop  offset="0" style="stop-color:#FFC96B"/>
	<stop  offset="0.6227" style="stop-color:#F89939"/>
	<stop  offset="1" style="stop-color:#F48120"/>
</linearGradient>
<path fill="url(#SVGID_10_)" d="M-131,741h48v16h-48V741z"/>
<linearGradient id="SVGID_11_" gradientUnits="userSpaceOnUse" x1="-131" y1="717" x2="-51" y2="717">
	<stop  offset="0" style="stop-color:#FFC96B"/>
	<stop  offset="0.6227" style="stop-color:#F89939"/>
	<stop  offset="1" style="stop-color:#F48120"/>
</linearGradient>
<path fill="url(#SVGID_11_)" d="M-131,709h80v16h-80V709z"/>
<linearGradient id="SVGID_12_" gradientUnits="userSpaceOnUse" x1="93" y1="685" x2="109" y2="685">
	<stop  offset="0" style="stop-color:#FFC96B"/>
	<stop  offset="0.6227" style="stop-color:#F89939"/>
	<stop  offset="1" style="stop-color:#F48120"/>
</linearGradient>
<path fill="url(#SVGID_12_)" d="M93,677h16v16H93V677z"/>
<linearGradient id="SVGID_13_" gradientUnits="userSpaceOnUse" x1="93" y1="717" x2="109" y2="717">
	<stop  offset="0" style="stop-color:#FFC96B"/>
	<stop  offset="0.6227" style="stop-color:#F89939"/>
	<stop  offset="1" style="stop-color:#F48120"/>
</linearGradient>
<path fill="url(#SVGID_13_)" d="M93,709h16v16H93V709z"/>
<linearGradient id="SVGID_14_" gradientUnits="userSpaceOnUse" x1="93" y1="749" x2="109" y2="749">
	<stop  offset="0" style="stop-color:#FFC96B"/>
	<stop  offset="0.6227" style="stop-color:#F89939"/>
	<stop  offset="1" style="stop-color:#F48120"/>
</linearGradient>
<path fill="url(#SVGID_14_)" d="M93,741h16v16H93V741z"/>
</svg>
