<svg id="_x33_0_A_seat" enable-background="new 0 0 64 64" height="512" viewBox="0 0 64 64" width="512" xmlns="http://www.w3.org/2000/svg"><path d="m63 5c0-1.456-.787-2.583-2.215-3.174-2.864-1.185-8.061.036-10.492 2.467-.234.234-.712.774-1.357 1.525-5.509-3.187-11.202-4.818-16.936-4.818-5.45 0-10.811 1.435-15.501 4.15l1.002 1.73c4.387-2.538 9.4-3.88 14.499-3.88 5.268 0 10.516 1.482 15.617 4.37-.413.49-.859 1.022-1.326 1.58l-14.888-.992-.029.058c-12.944.334-23.374 10.961-23.374 23.984 0 13.233 10.767 24 24 24 12.502 0 22.796-9.61 23.897-21.83l3.233-1.617-3.15-15.749-.032-.12c-.02-.059-.053-.107-.076-.164.101-.116.222-.257.363-.423 3.114 4.725 4.765 10.181 4.765 15.903 0 5.1-1.341 10.113-3.878 14.499l1.731 1.002c2.713-4.69 4.147-10.051 4.147-15.501 0-6.322-1.891-12.336-5.439-17.502 2.209-2.74 5.439-7.146 5.439-9.498zm-11.293.707c.687-.688 1.722-1.266 2.86-1.677 1.039 1.282.594 2.402.539 2.523-.247.494-.047 1.095.447 1.342.143.071.296.105.446.105.367 0 .72-.202.896-.553.045-.09.914-1.907-.261-3.952 1.286-.21 2.523-.18 3.386.178.869.36.98.898.98 1.327 0 1.824-3.776 6.87-6.389 9.92-.226-.143-.465-.259-.721-.328-.875-.236-1.801.002-2.53.64l-6.768 5.64.877 1.052-6.985 5.433-1.356-1.899-3.272 3.272-6.856-4.284v-.446h9.474l.3-.367c4.631-5.666 13.71-16.703 14.933-17.926zm-19.707 48.293c-1.171 0-4.148-2.677-6.711-7h13.423c-2.564 4.323-5.541 7-6.712 7zm-7.801-9c-1.684-3.368-2.982-7.479-3.156-12h14.92l5.358 4.593 1.554-3.108c-.37 3.94-1.577 7.519-3.075 10.515zm-14.174-12h8.996c.154 4.427 1.312 8.525 2.912 12h-7.668c-2.493-3.393-4.038-7.524-4.24-12zm19.669-21.617 9.362 5.617h-13.767c1.476-2.49 3.078-4.421 4.405-5.617zm8.29 7.617c-1.127 1.373-2.012 2.454-2.458 3h-10.526v3.554l8.406 5.254.224.192h-12.587c.173-4.521 1.472-8.632 3.156-12zm4.414 7.847c.32 1.515.501 2.875.564 4.153h-1.876l-1.439-2.014zm.533 6.737-.417-.584h.442c-.007.195-.013.391-.025.584zm-2.095.507-.158.316-5.208-4.464 1.402-1.401zm-21.814-3.091h-8.996c.201-4.476 1.747-8.607 4.241-12h7.668c-1.602 3.475-2.759 7.573-2.913 12zm25.956 2h8.996c-.201 4.476-1.747 8.607-4.241 12h-7.668c1.602-3.475 2.759-7.573 2.913-12zm-.016-2c-.076-1.674-.344-3.468-.824-5.507l2.612-2.031 6.281 7.538zm-12.365-20.958 12.111.807c-1.306 1.572-2.689 3.246-3.985 4.819l-8.415-5.049zm-4.751.357c-1.64 1.563-3.396 3.828-4.908 6.601h-7.01c3.117-3.338 7.257-5.707 11.918-6.601zm-11.919 36.601h7.01c1.513 2.773 3.268 5.038 4.908 6.601-4.66-.894-8.8-3.263-11.918-6.601zm20.227 6.601c1.64-1.563 3.396-3.828 4.908-6.601h7.01c-3.117 3.338-7.257 5.707-11.918 6.601zm20.716-22.154-.608.304-8.853-10.624 5.25-4.375c.244-.214.483-.292.707-.23.278.076.525.351.667.742z"/><circle cx="50" cy="13" r="1"/><circle cx="53" cy="10" r="1"/><circle cx="47" cy="16" r="1"/><path d="m5.15 16.499c-2.715 4.69-4.15 10.051-4.15 15.501 0 5.441 1.43 10.793 4.134 15.478l1.732-1c-2.529-4.381-3.866-9.387-3.866-14.478 0-5.099 1.342-10.112 3.881-14.499z"/><path d="m32 61c-5.098 0-10.112-1.341-14.5-3.878l-1.001 1.73c4.692 2.714 10.052 4.148 15.501 4.148 5.44 0 10.792-1.43 15.478-4.134l-1-1.732c-4.382 2.529-9.388 3.866-14.478 3.866z"/><path d="m11 49c-2.206 0-4 1.794-4 4s1.794 4 4 4 4-1.794 4-4-1.794-4-4-4zm0 6c-1.103 0-2-.897-2-2s.897-2 2-2 2 .897 2 2-.897 2-2 2z"/><path d="m53 49c-2.206 0-4 1.794-4 4s1.794 4 4 4 4-1.794 4-4-1.794-4-4-4zm0 6c-1.103 0-2-.897-2-2s.897-2 2-2 2 .897 2 2-.897 2-2 2z"/><path d="m11 15c2.206 0 4-1.794 4-4s-1.794-4-4-4-4 1.794-4 4 1.794 4 4 4zm0-6c1.103 0 2 .897 2 2s-.897 2-2 2-2-.897-2-2 .897-2 2-2z"/></svg>